<svg xmlns="http://www.w3.org/2000/svg" viewBox="0 0 32.6 72.63">
	<path fill="#C3996C" d="M32.56,15.9A15.57,15.57,0,0,0,21.23.8C20.15.51,19,1,17.93,0H14.34c-1.25,1-2.53.57-3.75.94A15.21,15.21,0,0,0,0,14.8c0,.31.08.69.08,1V38.85c0,.37-.1.73-.07,1.1A14.76,14.76,0,0,0,5.7,51c4.67,3.71,10,4.08,15.51,2.76a14.83,14.83,0,0,0,11.29-14C32.67,31.83,32.57,23.87,32.56,15.9Zm-3.5,24.16c-.13,5.72-5.46,10.71-11.2,10.89-2.58.08-5.18.18-7.59-1C5.5,47.65,3.13,43.61,3.09,38.33c0-3.72,0-7.33,0-11.33h.08c0-4-.13-8.2,0-12.38A11.77,11.77,0,0,1,13.84,3.77C17,3.49,20.16,3.6,23,5.27a11.61,11.61,0,0,1,6.14,10.4C29.21,23.79,29.24,31.94,29.06,40.06Z"/>
	<path fill="#C3996C" d="M16,68.76,9.42,62.51c0,.94,0,2.07,0,3.21a.92.92,0,0,0,.2.59c2.19,2.15,4.4,4.29,6.51,6.33,2.07-2,4.22-4.09,6.36-6.18a1.06,1.06,0,0,0,.34-.63c0-1.18,0-2.36,0-3.52Z"/>
	<path fill="#C3996C" d="M17.82,10.61c0-1.18-.67-1.9-1.63-1.94a1.74,1.74,0,0,0-1.73,1.93q-.05,3.53,0,7.07c0,1.25.67,2,1.68,2s1.65-.71,1.69-2,0-2.33,0-3.49S17.85,11.8,17.82,10.61Z"/>
</svg>