<?xml version="1.0" encoding="utf-8"?>
<!-- Generator: Adobe Illustrator 24.3.0, SVG Export Plug-In . SVG Version: 6.00 Build 0)  -->
<svg version="1.1" id="Layer_1" xmlns="http://www.w3.org/2000/svg" xmlns:xlink="http://www.w3.org/1999/xlink" x="0px" y="0px"
	 viewBox="0 0 100 100" style="enable-background:new 0 0 100 100;" xml:space="preserve">
<style type="text/css">
	.st0{fill:#FF7700;}
	.st1{display:none;fill:#FF7700;}
</style>
<path class="st0" d="M21.2,74.4C55.5,74.5,85,47.5,94,15.6c0.8,2.3,1.3,4.6,2,6.9c0.3,1,1.9,0.9,1.9-0.2c-0.1-4.1-1.3-8.2-2.5-12.1
	c-0.3-1.2-2-1.8-2.9-0.8c-2.2,2.5-4.5,3.9-7.3,5.6c-1.6,1-0.6,3.7,1.3,3.2c1.6-0.4,3-1.2,4.4-2.2c-4.3,15.5-13.1,29.4-25.6,39.8
	c-12.9,10.7-28,15.7-44.3,18.2C20.8,73.9,20.9,74.4,21.2,74.4z"/>
<path class="st1" d="M81.2,77.1c-1.7,1.1-3.3,2.3-5,3.4c7.4-16.3,2.2-36.3-9.6-49.3C52.8,16,30.5,9.5,10.5,11.2
	c-0.7,0.1-0.8,1.2-0.1,1.2c18.9,1.1,38.5,5.1,52.4,19.2c11.9,12,16.9,30.4,10.6,46.1c-0.6-2.1-1.6-4.1-3-5.9
	c-0.6-0.7-1.9-0.2-1.5,0.8c1.5,4.2,2.3,8.3,1.3,12.7c-0.3,1.7,1.6,2.8,3,1.9c3.4-2.3,6.8-4.5,10.2-6.8
	C85.4,78.9,83.2,75.7,81.2,77.1z"/>
<g>
	<path d="M8.1,76.6c0.8,0,1.4,0.4,1.9,0.9c0.2,0.2,0.4,0.4,0.4,0.5c0,0.1,0.1,0.3,0.1,0.5c0,0.2,0,0.3-0.1,0.4
		c-0.2,0.4-0.9,0.4-1.2,0.4c-0.3,0-0.4,0-0.4-0.1c0,0,0.1-0.1,0.3-0.3s0.3-0.3,0.3-0.3c0-0.1-0.1-0.3-0.4-0.6
		c-0.2-0.2-0.3-0.3-0.4-0.3c-0.1-0.1-0.5-0.1-0.8-0.1c-0.8,0-1.4,0.6-1.7,1.3c-0.4,0.7-0.4,0.6-0.6,1.3c-0.2,0.7-0.3,1.1-0.3,1.8
		c0,1.1,0,2.1,0.8,2.9c0.4,0.4,0.7,0.7,1.6,0.7c0.4,0,0.8-0.1,1.1-0.2c0.7-0.3,1-0.6,1.2-0.7c0.1-0.1,0.3-0.1,0.5-0.1
		s0.3,0.2,0.3,0.3s0,0.2-0.3,0.5c-0.5,0.6-1,0.8-1.7,1.2c-0.3,0.1-0.7,0.2-1.3,0.2c-1,0-1.3-0.2-2.1-0.9c-1.1-1-1.2-2.5-1.2-3.9
		c0-1.3,0.4-2.6,1.1-3.6C6.1,77.3,6.7,76.6,8.1,76.6z"/>
	<path d="M16.8,83c0,0.5,0,1.2-0.2,1.6c-0.2,0.3-0.6,1-1.1,1.4c-0.5,0.4-0.9,0.8-1.5,0.8c-0.7,0-1.4-0.5-1.7-1.2
		c-0.2-0.4-0.5-1.3-0.5-2.6c0-0.6,0.2-1.1,0.5-1.4c0.6-0.7,1.1-1.1,2.2-1.1C16.3,80.5,16.8,81.2,16.8,83z M14.6,81.4
		c-0.9,0-1.4,0.3-1.8,1.1c-0.1,0.2-0.2,0.7-0.2,1.1c0,0.9,0.2,1.4,0.6,1.9c0.2,0.3,0.4,0.4,0.6,0.4c0.3,0,0.5-0.2,1-0.6
		c0.5-0.4,0.8-0.8,0.9-1.1c0.1-0.2,0.1-0.7,0.1-1.2c0-0.5-0.1-1-0.2-1.1C15.3,81.6,15.2,81.4,14.6,81.4z"/>
	<path d="M18.7,86.9c-0.5,0-0.7-3.9-0.7-4.4c0-0.2,0-0.4,0-0.6c0-0.4,0-0.6-0.1-0.7c-0.1,0-0.1-0.1-0.1-0.2c0-0.3,0.4-0.8,0.7-0.8
		c0,0,0,0,0,0c0.1,0,0.1,0.1,0.2,0.1c0.2,0.2,0.2,0.5,0.2,1.3c0,0.2,0.1,2,0.1,2.2c0.3-0.8,0.7-1.6,1.1-2.4c0.4-0.7,0.6-1,1.7-1
		c0.9,0,1.2,0.4,1.2,2.8c0,0.5,0,1.3,0,1.8c0,0.3,0,0.4,0,0.5c0,0.3,0.2,0.5,0.2,0.7c0,0.5-0.3,0.5-0.7,0.5c-0.4,0-0.5-0.3-0.5-0.6
		c0-0.2-0.1-0.6-0.1-0.8c0-0.1,0-0.1,0-0.1c0-0.6,0-2,0-2.3c0-1.1,0-1.5-0.5-1.5c-0.2,0-0.5,0.4-0.7,0.8c-0.5,0.9-1.1,2.3-1.6,4
		C19.3,86.7,19.1,86.9,18.7,86.9z"/>
	<path d="M25.9,80.5c0-0.2,0-0.2,0-0.5c0-0.6,0-1.2,0.1-1.9c0-0.8,0-1.2,0.3-1.2c0.4,0,0.7,0.1,0.7,0.6c0,0.5-0.1,0.9-0.1,1.9
		c0,0.1,0,0.2,0,0.3c0,0.2,0,0.4,0,0.6c0,0,1.1-0.2,1.4-0.3c0.3-0.1,0.5-0.1,0.9-0.1c0.2,0,0.5,0.1,0.5,0.3c0,0.1-0.1,0.3-0.3,0.4
		c-0.4,0.3-2,0.5-2.5,0.6v1.1c0,1.8,0,2.8,0.3,3.2c0.3,0.4,0.7,0.4,1,0.4c0.4,0,0.9-0.5,1-0.6c0-0.1,0-0.1,0.2-0.1
		c0.3,0,0.6,0.3,0.6,0.5c0,0.1-0.3,0.5-0.4,0.5c-0.5,0.4-0.7,0.6-1.6,0.6c-1.5,0-1.9-1.4-1.9-3c0-0.5-0.1-1.6-0.1-2.4
		c-0.6,0.1-1,0.2-1.2,0.2s-0.5-0.2-0.5-0.5s0.2-0.6,0.5-0.6c0.1,0,0.2,0,0.3,0S25.6,80.5,25.9,80.5z"/>
	<path d="M33.3,80.4c0.4,0,0.5,0,0.9,0.2c0.5,0.2,0.6,0.2,0.8,0.5c0.6,0.6,0.6,1.5,0.6,2.3c0,0.9-0.2,2.1-0.2,2.8
		c0,0.2,0,0.4-0.1,0.5s-0.3,0.2-0.5,0.2s-0.3-0.2-0.3-0.4c-0.5,0.3-1.4,0.5-2.2,0.5c-0.4,0-1,0-1.1-0.1c-0.2-0.1-0.5-0.8-0.5-1.1
		c0-0.6,0.3-1.1,0.7-1.5c0.4-0.5,0.9-1,2-1c0.5,0,1,0.3,1.2,0.6c0-0.2,0-0.3,0-0.5c0-0.5,0-0.9-0.1-1.1c-0.2-0.4-0.8-0.7-1.4-0.7
		c-0.8,0-1.3,0.2-1.7,0.5c-0.3,0.3-0.3,0.5-0.7,0.5c-0.1,0-0.2-0.1-0.2-0.4c0-0.2,0-0.3,0.1-0.5c0.5-0.7,1-1.1,2-1.2
		C33,80.4,33.2,80.4,33.3,80.4z M32.3,84.8c-0.2,0.3-0.4,0.7-0.4,0.8c0,0.3,0.3,0.3,1,0.3c0.6,0,1.2-0.2,1.6-0.6
		c0-0.2,0-0.4-0.2-0.7c-0.1-0.3-0.7-0.5-1.1-0.5C33,84.1,32.6,84.5,32.3,84.8z"/>
	<path d="M36.9,84.1c0-0.1,0-0.3,0-0.4c0.1-1.5,0.5-2.3,0.9-2.7c0.3-0.3,0.9-0.5,1.5-0.5c0.4,0,0.9,0.3,1.1,0.5
		c0.4,0.4,0.6,0.5,0.6,0.9c0,0.3-0.1,0.5-0.5,0.6c-0.2,0.1-0.3,0.1-0.4,0.1c-0.1,0-0.2-0.1-0.2-0.2c0-0.1,0.1-0.2,0.1-0.3
		c0-0.4-0.5-0.6-0.8-0.6c-0.4,0-0.9,0.4-1,0.9C38,83,37.9,83.6,37.9,84c0,0.7,0.6,1.9,1.4,1.9c0.4,0,0.9-0.2,1.2-0.3
		c0.7-0.4,0.8-0.5,1.1-0.5c0.2,0,0.3,0.1,0.3,0.3c0,0.1,0,0.3-0.3,0.5c-0.2,0.2-0.4,0.4-0.6,0.5c-0.4,0.3-1,0.7-1.8,0.7
		s-1.4-0.5-1.8-1.1C37.1,85.2,36.9,84.6,36.9,84.1z"/>
	<path d="M44.1,80.5c0-0.2,0-0.2,0-0.5c0-0.6,0-1.2,0.1-1.9c0-0.8,0-1.2,0.3-1.2c0.4,0,0.7,0.1,0.7,0.6c0,0.5-0.1,0.9-0.1,1.9
		c0,0.1,0,0.2,0,0.3c0,0.2,0,0.4,0,0.6c0,0,1.1-0.2,1.4-0.3c0.3-0.1,0.5-0.1,0.9-0.1c0.2,0,0.5,0.1,0.5,0.3c0,0.1-0.1,0.3-0.3,0.4
		c-0.4,0.3-2,0.5-2.5,0.6v1.1c0,1.8,0,2.8,0.3,3.2c0.3,0.4,0.7,0.4,1,0.4c0.4,0,0.9-0.5,1-0.6c0-0.1,0-0.1,0.2-0.1
		c0.3,0,0.6,0.3,0.6,0.5c0,0.1-0.3,0.5-0.4,0.5c-0.5,0.4-0.7,0.6-1.6,0.6c-1.5,0-1.9-1.4-1.9-3c0-0.5-0.1-1.6-0.1-2.4
		c-0.6,0.1-1,0.2-1.2,0.2s-0.5-0.2-0.5-0.5s0.2-0.6,0.5-0.6c0.1,0,0.2,0,0.3,0S43.8,80.5,44.1,80.5z"/>
	<path d="M52.7,79.7c0-1.2-0.2-1.7-0.2-2.3c0-0.7,0.1-1,0.5-1c0.1,0,0.3,0,0.3,0.1c0.1,0.1,0.2,0.3,0.4,0.6c0.2,0.4,0.4,1,0.5,1.3
		c0.3,0.8,0.7,1.6,1.1,2.2c0.2,0.4,1,1.9,1.5,1.9c0,0,0.1,0,0.1,0c0.6-0.1,1.7-1.4,2-1.8c0.5-0.7,0.9-2,1-2.7c0-0.6,0-1.2,0.4-1.2
		c0.6,0,0.6,0.4,0.6,1.1c0,0.2,0,0.3,0,0.5v0.9c0,0.4,0,0.7,0,1.1c0,0.2,0,0.4,0,0.6c0,1.2,0.1,1.7,0.2,3.1c0,1,0.1,1.6,0.1,1.8
		c0,0.3,0.4,0.9,0.4,1.1c0,0.2-0.4,0.4-0.6,0.4c-0.5,0-0.7-0.7-0.7-2c0-0.4,0-0.9-0.1-1.5c0-0.5-0.1-1.1-0.1-2.3v-1.2
		c-0.1,0.2-0.3,0.6-0.5,0.9c-0.2,0.3-0.4,0.5-0.9,1c-0.3,0.4-1,0.8-1.5,1.1c-0.1,0.1-0.3,0.1-0.5,0.1c-0.3,0-0.6-0.1-0.8-0.3
		c-0.3-0.4-0.4-0.3-0.7-0.7c-0.3-0.5-0.5-0.9-0.8-1.5c-0.1-0.2-0.4-0.9-0.5-1.2c-0.1-0.2-0.1-0.3-0.2-0.5v1c0,1.5,0,3.2,0.1,4.6
		c0,0.5,0,0.8,0.2,0.9c0.1,0.1,0.2,0.2,0.2,0.3c0,0.3-0.4,0.6-0.6,0.6c-0.3,0-0.3-0.3-0.4-0.5c-0.1-0.2-0.3-0.9-0.3-2.2
		c0-0.6,0-1.2,0-1.8s0-1,0-1.5C52.7,80.8,52.7,79.8,52.7,79.7z"/>
	<path d="M64.5,80.3c0.7,0,1.4,0.4,1.9,0.9c0.4,0.4,0.7,0.7,0.7,1.2c0,0.3-0.4,0.6-0.7,0.8c-0.2,0.1-0.8,0.4-1.1,0.5
		c-0.6,0.2-1.3,0.4-1.9,0.6c0,0.6,0.3,1.1,0.5,1.4c0.2,0.2,0.5,0.3,1.2,0.3c0.3,0,0.8-0.3,0.9-0.4c0.1-0.1,0.5-0.3,0.8-0.3
		c0.2,0,0.4,0.2,0.4,0.3c0,0.3-0.6,0.6-0.8,0.8c-0.5,0.4-0.8,0.6-1.4,0.6c-1,0-1.5-0.1-1.9-0.5c-0.7-0.7-0.9-1.4-0.9-2.6
		c0-1.8,0.4-2.5,1.3-3.2C63.9,80.5,64.2,80.3,64.5,80.3z M66.1,82.3c-0.4-0.4-0.8-0.9-1.4-0.9c-0.2,0-0.4,0.1-0.5,0.2
		c-0.3,0.2-0.8,1.1-0.8,1.6C64.3,83,65.4,82.7,66.1,82.3z"/>
</g>
</svg>
