<?xml version="1.0" encoding="utf-8"?>
<!-- Generator: Adobe Illustrator 24.3.0, SVG Export Plug-In . SVG Version: 6.00 Build 0)  -->
<svg version="1.1" id="Layer_1" xmlns="http://www.w3.org/2000/svg" xmlns:xlink="http://www.w3.org/1999/xlink" x="0px" y="0px"
	 viewBox="0 0 100 100" style="enable-background:new 0 0 100 100;" xml:space="preserve">
<style type="text/css">
	.st0{display:none;fill:#FF7700;}
	.st1{fill:#FF7700;}
	.st2{fill:#FF7700}
</style>
<path class="st0" d="M6.8,16.6c17.4,2.6,33.6,8,47.3,19.4c13.3,11,22.7,25.9,27.3,42.5c-1.4-1.1-3-1.9-4.7-2.4
	c-2-0.5-3.1,2.3-1.4,3.4c3,1.8,5.4,3.3,7.7,5.9c1,1.1,2.7,0.4,3.1-0.8c1.2-4.2,2.5-8.5,2.6-12.9c0-1.2-1.7-1.4-2-0.3
	c-0.7,2.5-1.3,4.9-2.2,7.4C75,44.7,43.4,15.9,6.8,16C6.5,16,6.4,16.5,6.8,16.6z"/>
<path class="st0" d="M81.2,77.1c-1.7,1.1-3.3,2.3-5,3.4c7.4-16.3,2.2-36.3-9.6-49.3C52.8,16,30.5,9.5,10.5,11.2
	c-0.7,0.1-0.8,1.2-0.1,1.2c18.9,1.1,38.5,5.1,52.4,19.2c11.9,12,16.9,30.4,10.6,46.1c-0.6-2.1-1.6-4.1-3-5.9
	c-0.6-0.7-1.9-0.2-1.5,0.8c1.5,4.2,2.3,8.3,1.3,12.7c-0.3,1.7,1.6,2.8,3,1.9c3.4-2.3,6.8-4.5,10.2-6.8
	C85.4,78.9,83.2,75.7,81.2,77.1z"/>
<path class="st1" d="M96.8,68.8c0.1-2.5,0.5-4.8,1.2-7.2c0.4-1.2-1.1-1.7-2-1.3c-2.4,1.3-4.6,1.5-7.3,1.5c-0.7,0-1,1.2-0.3,1.5
	c1.4,0.5,2.9,0.7,4.5,0.5c-3.2,3.3-7.1,5.9-11.8,6c-5.4,0.2-10.6-3.2-11.7-8.7c-0.9-4.6,0.8-9.3,1.9-13.7c1.1-4.2,1.7-8.6,0.9-12.9
	c-1.2-7.2-6.6-14-14.5-14.1c-3.9,0-7.1,2.1-9.9,4.6c-3,2.7-6.2,5.9-5.7,10.3c0,0.3,0.5,0.3,0.5,0c0-5.6,6.7-11.6,11.9-13.1
	c5.1-1.5,10.5,1.3,13.3,5.6c5.8,8.5,1.2,18.1-0.5,27C66,62,68.5,69.2,76.2,71.8c6.6,2.2,13.4-0.6,18.2-5.4c-0.1,0.9-0.2,1.8-0.2,2.7
	C94.2,70.7,96.7,70.5,96.8,68.8z"/>
<g>
	<path class="st1" d="M5.8,36c0.8,0,1.4,0.4,1.9,0.9c0.2,0.2,0.4,0.4,0.4,0.5c0,0.1,0.1,0.3,0.1,0.5c0,0.2,0,0.3-0.1,0.4C8,38.8,7.3,38.8,7,38.8
		c-0.3,0-0.4,0-0.4-0.1c0,0,0.1-0.1,0.3-0.3s0.3-0.3,0.3-0.3c0-0.1-0.1-0.3-0.4-0.6c-0.2-0.2-0.3-0.3-0.4-0.3
		c-0.1-0.1-0.5-0.1-0.8-0.1c-0.8,0-1.4,0.6-1.7,1.3c-0.4,0.7-0.4,0.6-0.6,1.3C3.2,40.4,3,40.8,3,41.5c0,1.1,0,2.1,0.8,2.9
		c0.4,0.4,0.7,0.7,1.6,0.7c0.4,0,0.8-0.1,1.1-0.2c0.7-0.3,1-0.6,1.2-0.7c0.1-0.1,0.3-0.1,0.5-0.1s0.3,0.2,0.3,0.3
		c0,0.1,0,0.2-0.3,0.5c-0.5,0.6-1,0.8-1.7,1.2c-0.3,0.1-0.7,0.2-1.3,0.2c-1,0-1.3-0.2-2.1-0.9c-1.1-1-1.2-2.5-1.2-3.9
		c0-1.3,0.4-2.6,1.1-3.6C3.8,36.8,4.5,36,5.8,36z"/>
	<path class="st1" d="M14.5,42.5c0,0.5,0,1.2-0.2,1.6c-0.2,0.3-0.6,1-1.1,1.4c-0.5,0.4-0.9,0.8-1.5,0.8c-0.7,0-1.4-0.5-1.7-1.2
		c-0.2-0.4-0.5-1.3-0.5-2.6c0-0.6,0.2-1.1,0.5-1.4c0.6-0.7,1.1-1.1,2.2-1.1C14,39.9,14.5,40.6,14.5,42.5z M12.4,40.9
		c-0.9,0-1.4,0.3-1.8,1.1c-0.1,0.2-0.2,0.7-0.2,1.1c0,0.9,0.2,1.4,0.6,1.9c0.2,0.3,0.4,0.4,0.6,0.4c0.3,0,0.5-0.2,1-0.6
		c0.5-0.4,0.8-0.8,0.9-1.1c0.1-0.2,0.1-0.7,0.1-1.2c0-0.5-0.1-1-0.2-1.1C13,41,13,40.9,12.4,40.9z"/>
	<path class="st1" d="M16.5,46.3c-0.5,0-0.7-3.9-0.7-4.4c0-0.2,0-0.4,0-0.6c0-0.4,0-0.6-0.1-0.7c-0.1,0-0.1-0.1-0.1-0.2c0-0.3,0.4-0.8,0.7-0.8
		c0,0,0,0,0,0c0.1,0,0.1,0.1,0.2,0.1c0.2,0.2,0.2,0.5,0.2,1.3c0,0.2,0.1,2,0.1,2.2c0.3-0.8,0.7-1.6,1.1-2.4c0.4-0.7,0.6-1,1.7-1
		c0.9,0,1.2,0.4,1.2,2.8c0,0.5,0,1.3,0,1.8c0,0.3,0,0.4,0,0.5c0,0.3,0.2,0.5,0.2,0.7c0,0.5-0.3,0.5-0.7,0.5c-0.4,0-0.5-0.3-0.5-0.6
		c0-0.2-0.1-0.6-0.1-0.8c0-0.1,0-0.1,0-0.1c0-0.6,0-2,0-2.3c0-1.1,0-1.5-0.5-1.5c-0.2,0-0.5,0.4-0.7,0.8c-0.5,0.9-1.1,2.3-1.6,4
		C17,46.1,16.8,46.3,16.5,46.3z"/>
	<path class="st1" d="M23.7,39.9c0-0.2,0-0.2,0-0.5c0-0.6,0-1.2,0.1-1.9c0-0.8,0-1.2,0.3-1.2c0.4,0,0.7,0.1,0.7,0.6c0,0.5-0.1,0.9-0.1,1.9
		c0,0.1,0,0.2,0,0.3c0,0.2,0,0.4,0,0.6c0,0,1.1-0.2,1.4-0.3c0.3-0.1,0.5-0.1,0.9-0.1c0.2,0,0.5,0.1,0.5,0.3c0,0.1-0.1,0.3-0.3,0.4
		c-0.4,0.3-2,0.5-2.5,0.6v1.1c0,1.8,0,2.8,0.3,3.2c0.3,0.4,0.7,0.4,1,0.4c0.4,0,0.9-0.5,1-0.6c0-0.1,0-0.1,0.2-0.1
		c0.3,0,0.6,0.3,0.6,0.5c0,0.1-0.3,0.5-0.4,0.5c-0.5,0.4-0.7,0.6-1.6,0.6c-1.5,0-1.9-1.4-1.9-3c0-0.5-0.1-1.6-0.1-2.4
		c-0.6,0.1-1,0.2-1.2,0.2s-0.5-0.2-0.5-0.5s0.2-0.6,0.5-0.6c0.1,0,0.2,0,0.3,0S23.3,40,23.7,39.9z"/>
	<path class="st1" d="M31.1,39.8c0.4,0,0.5,0,0.9,0.2c0.5,0.2,0.6,0.2,0.8,0.5c0.6,0.6,0.6,1.5,0.6,2.3c0,0.9-0.2,2.1-0.2,2.8
		c0,0.2,0,0.4-0.1,0.5c0,0.1-0.3,0.2-0.5,0.2s-0.3-0.2-0.3-0.4c-0.5,0.3-1.4,0.5-2.2,0.5c-0.4,0-1,0-1.1-0.1
		c-0.2-0.1-0.5-0.8-0.5-1.1c0-0.6,0.3-1.1,0.7-1.5c0.4-0.5,0.9-1,2-1c0.5,0,1,0.3,1.2,0.6c0-0.2,0-0.3,0-0.5c0-0.5,0-0.9-0.1-1.1
		c-0.2-0.4-0.8-0.7-1.4-0.7c-0.8,0-1.3,0.2-1.7,0.5c-0.3,0.3-0.3,0.5-0.7,0.5c-0.1,0-0.2-0.1-0.2-0.4c0-0.2,0-0.3,0.1-0.5
		c0.5-0.7,1-1.1,2-1.2C30.7,39.9,30.9,39.8,31.1,39.8z M30.1,44.2c-0.2,0.3-0.4,0.7-0.4,0.8c0,0.3,0.3,0.3,1,0.3
		c0.6,0,1.2-0.2,1.6-0.6c0-0.2,0-0.4-0.2-0.7c-0.1-0.3-0.7-0.5-1.1-0.5C30.8,43.5,30.3,43.9,30.1,44.2z"/>
	<path class="st1" d="M34.6,43.5c0-0.1,0-0.3,0-0.4c0.1-1.5,0.5-2.3,0.9-2.7c0.3-0.3,0.9-0.5,1.5-0.5c0.4,0,0.9,0.3,1.1,0.5
		c0.4,0.4,0.6,0.5,0.6,0.9c0,0.3-0.1,0.5-0.5,0.6C38,42,37.9,42,37.8,42c-0.1,0-0.2-0.1-0.2-0.2c0-0.1,0.1-0.2,0.1-0.3
		c0-0.4-0.5-0.6-0.8-0.6c-0.4,0-0.9,0.4-1,0.9c-0.1,0.6-0.2,1.2-0.2,1.6c0,0.7,0.6,1.9,1.4,1.9c0.4,0,0.9-0.2,1.2-0.3
		c0.7-0.4,0.8-0.5,1.1-0.5c0.2,0,0.3,0.1,0.3,0.3c0,0.1,0,0.3-0.3,0.5c-0.2,0.2-0.4,0.4-0.6,0.5c-0.4,0.3-1,0.7-1.8,0.7
		s-1.4-0.5-1.8-1.1C34.8,44.7,34.6,44,34.6,43.5z"/>
	<path class="st1" d="M41.8,39.9c0-0.2,0-0.2,0-0.5c0-0.6,0-1.2,0.1-1.9c0-0.8,0-1.2,0.3-1.2c0.4,0,0.7,0.1,0.7,0.6c0,0.5-0.1,0.9-0.1,1.9
		c0,0.1,0,0.2,0,0.3c0,0.2,0,0.4,0,0.6c0,0,1.1-0.2,1.4-0.3c0.3-0.1,0.5-0.1,0.9-0.1c0.2,0,0.5,0.1,0.5,0.3c0,0.1-0.1,0.3-0.3,0.4
		c-0.4,0.3-2,0.5-2.5,0.6v1.1c0,1.8,0,2.8,0.3,3.2c0.3,0.4,0.7,0.4,1,0.4c0.4,0,0.9-0.5,1-0.6c0-0.1,0-0.1,0.2-0.1
		c0.3,0,0.6,0.3,0.6,0.5c0,0.1-0.3,0.5-0.4,0.5c-0.5,0.4-0.7,0.6-1.6,0.6c-1.5,0-1.9-1.4-1.9-3c0-0.5-0.1-1.6-0.1-2.4
		c-0.6,0.1-1,0.2-1.2,0.2s-0.5-0.2-0.5-0.5s0.2-0.6,0.5-0.6c0.1,0,0.2,0,0.3,0S41.5,40,41.8,39.9z"/>
	<path class="st1" d="M50.4,39.2c0-1.2-0.2-1.7-0.2-2.3c0-0.7,0.1-1,0.5-1c0.1,0,0.3,0,0.3,0.1c0.1,0.1,0.2,0.3,0.4,0.6c0.2,0.4,0.4,1,0.5,1.3
		c0.3,0.8,0.7,1.6,1.1,2.2c0.2,0.4,1,1.9,1.5,1.9c0,0,0.1,0,0.1,0c0.6-0.1,1.7-1.4,2-1.8c0.5-0.7,0.9-2,1-2.7c0-0.6,0-1.2,0.4-1.2
		c0.6,0,0.6,0.4,0.6,1.1c0,0.2,0,0.3,0,0.5v0.9c0,0.4,0,0.7,0,1.1c0,0.2,0,0.4,0,0.6c0,1.2,0.1,1.7,0.2,3.1c0,1,0.1,1.6,0.1,1.8
		c0,0.3,0.4,0.9,0.4,1.1c0,0.2-0.4,0.4-0.6,0.4c-0.5,0-0.7-0.7-0.7-2c0-0.4,0-0.9-0.1-1.5c0-0.5-0.1-1.1-0.1-2.3v-1.2
		c-0.1,0.2-0.3,0.6-0.5,0.9c-0.2,0.3-0.4,0.5-0.9,1c-0.3,0.4-1,0.8-1.5,1.1C54.7,43,54.6,43,54.4,43c-0.3,0-0.6-0.1-0.8-0.3
		c-0.3-0.4-0.4-0.3-0.7-0.7c-0.3-0.5-0.5-0.9-0.8-1.5c-0.1-0.2-0.4-0.9-0.5-1.2c-0.1-0.2-0.1-0.3-0.2-0.5v1c0,1.5,0,3.2,0.1,4.6
		c0,0.5,0,0.8,0.2,0.9c0.1,0.1,0.2,0.2,0.2,0.3c0,0.3-0.4,0.6-0.6,0.6c-0.3,0-0.3-0.3-0.4-0.5c-0.1-0.2-0.3-0.9-0.3-2.2
		c0-0.6,0-1.2,0-1.8c0-0.5,0-1,0-1.5C50.5,40.2,50.4,39.2,50.4,39.2z"/>
	<path class="st1" d="M62.3,39.8c0.7,0,1.4,0.4,1.9,0.9c0.4,0.4,0.7,0.7,0.7,1.2c0,0.3-0.4,0.6-0.7,0.8c-0.2,0.1-0.8,0.4-1.1,0.5
		c-0.6,0.2-1.3,0.4-1.9,0.6c0,0.6,0.3,1.1,0.5,1.4c0.2,0.2,0.5,0.3,1.2,0.3c0.3,0,0.8-0.3,0.9-0.4c0.1-0.1,0.5-0.3,0.8-0.3
		c0.2,0,0.4,0.2,0.4,0.3c0,0.3-0.6,0.6-0.8,0.8c-0.5,0.4-0.8,0.6-1.4,0.6c-1,0-1.5-0.1-1.9-0.5c-0.7-0.7-0.9-1.4-0.9-2.6
		c0-1.8,0.4-2.5,1.3-3.2C61.6,39.9,62,39.8,62.3,39.8z M63.9,41.7c-0.4-0.4-0.8-0.9-1.4-0.9c-0.2,0-0.4,0.1-0.5,0.2
		c-0.3,0.2-0.8,1.1-0.8,1.6C62,42.4,63.1,42.1,63.9,41.7z"/>
</g>
</svg>
